<!DOCTYPE svg PUBLIC "-//W3C//DTD SVG 1.1//EN" "http://www.w3.org/Graphics/SVG/1.1/DTD/svg11.dtd">
<!-- Uploaded to: SVG Repo, www.svgrepo.com, Transformed by: SVG Repo Mixer Tools -->
<svg width="800px" height="800px" viewBox="-2.4 -2.4 28.80 28.80" xmlns="http://www.w3.org/2000/svg" fill="#000000">
<g id="SVGRepo_bgCarrier" stroke-width="0"/>
<g id="SVGRepo_tracerCarrier" stroke-linecap="round" stroke-linejoin="round" stroke="#CCCCCC" stroke-width="0.336"/>
<g id="SVGRepo_iconCarrier"> <path fill="#0A0707" d="M12 2c5.514 0 10 4.486 10 10s-4.486 10-10 10S2 17.514 2 12 6.486 2 12 2m0-2C5.373 0 0 5.373 0 12s5.373 12 12 12 12-5.373 12-12S18.627 0 12 0z"/> <path fill="#0A0707" d="M10.5 16.5c-.42 0-.82-.176-1.094-.484l-2.963-2.97c-.274-.26-.443-.653-.443-1.06 0-.405.17-.798.462-1.078.482-.513 1.557-.55 2.113.037l1.925 1.93 4.943-4.958c.52-.55 1.575-.57 2.132.02.256.242.425.634.425 1.04 0 .402-.164.79-.45 1.068l-5.993 6.012c-.238.267-.637.443-1.057.443z"/> </g>
</svg>